<svg xmlns="http://www.w3.org/2000/svg" width="48" height="48" viewBox="0 0 48 48" fill="none">
  <!-- Kafka network topology icon (symbol only, no text) -->
  <!-- Central node (larger) -->
  <circle cx="24" cy="24" r="5" fill="#231F20" stroke="#F8FAFC" stroke-width="2"/>
  <!-- Top node -->
  <circle cx="24" cy="6" r="3.5" fill="#231F20" stroke="#F8FAFC" stroke-width="2"/>
  <!-- Bottom node -->
  <circle cx="24" cy="42" r="3.5" fill="#231F20" stroke="#F8FAFC" stroke-width="2"/>
  <!-- Upper-left node -->
  <circle cx="8" cy="14" r="3.5" fill="#231F20" stroke="#F8FAFC" stroke-width="2"/>
  <!-- Lower-left node -->
  <circle cx="8" cy="34" r="3.5" fill="#231F20" stroke="#F8FAFC" stroke-width="2"/>
  <!-- Right node -->
  <circle cx="40" cy="24" r="3.5" fill="#231F20" stroke="#F8FAFC" stroke-width="2"/>
  <!-- Connecting lines -->
  <line x1="24" y1="19" x2="24" y2="9.5" stroke="#F8FAFC" stroke-width="4" stroke-linecap="round"/>
  <line x1="24" y1="19" x2="24" y2="9.5" stroke="#231F20" stroke-width="1.5"/>
  <line x1="24" y1="29" x2="24" y2="38.5" stroke="#F8FAFC" stroke-width="4" stroke-linecap="round"/>
  <line x1="24" y1="29" x2="24" y2="38.5" stroke="#231F20" stroke-width="1.5"/>
  <line x1="20.5" y1="21.5" x2="11" y2="16" stroke="#F8FAFC" stroke-width="4" stroke-linecap="round"/>
  <line x1="20.5" y1="21.5" x2="11" y2="16" stroke="#231F20" stroke-width="1.5"/>
  <line x1="20.5" y1="26.5" x2="11" y2="32" stroke="#F8FAFC" stroke-width="4" stroke-linecap="round"/>
  <line x1="20.5" y1="26.5" x2="11" y2="32" stroke="#231F20" stroke-width="1.5"/>
  <line x1="29" y1="24" x2="36.5" y2="24" stroke="#F8FAFC" stroke-width="4" stroke-linecap="round"/>
  <line x1="29" y1="24" x2="36.5" y2="24" stroke="#231F20" stroke-width="1.5"/>
</svg>
